<svg width="24" height="24" viewBox="0 0 24 24" fill="none" xmlns="http://www.w3.org/2000/svg">
<path d="M23.97 12.7906C23.8401 14.61 23.2803 16.2909 22.3007 17.8333C21.4511 19.1682 20.3715 20.2756 19.0421 21.1556C17.7326 22.0158 16.2632 22.5893 14.7139 22.8563C13.3245 23.0936 11.905 23.054 10.5156 22.7574C9.59601 22.5596 8.70638 22.263 7.86673 21.8378C7.43691 21.6203 7.02708 21.3632 6.60725 21.1061C6.35736 20.9578 6.2474 20.7304 6.2674 20.4338C6.27739 20.1569 6.40734 19.9592 6.64724 19.8306C6.88714 19.7021 7.14703 19.7021 7.38693 19.8603C7.88672 20.1866 8.40651 20.4832 8.95628 20.7205C9.67598 21.0369 10.4257 21.2446 11.2053 21.3929C12.005 21.5412 12.8047 21.5412 13.6043 21.5115C14.0841 21.4918 14.5639 21.3929 15.0437 21.294C15.7235 21.1556 16.3732 20.9381 16.9929 20.6315C17.4427 20.4041 17.8826 20.1668 18.3024 19.8999C18.8422 19.5637 19.332 19.1484 19.7718 18.6936C20.5115 17.9223 21.1312 17.072 21.591 16.103C22.3207 14.5704 22.5806 12.8895 22.4606 11.2086C22.3607 9.73536 21.8509 8.28188 21.0712 7.02615C20.6714 6.38345 20.2116 5.80008 19.6718 5.27603C18.9921 4.60367 18.2324 4.04008 17.3728 3.60502C15.9933 2.89311 14.474 2.50749 12.9146 2.50749C11.3153 2.50749 9.70596 2.88323 8.29655 3.64457C7.9467 3.83244 7.60684 4.04997 7.27698 4.27738C6.19743 5.03873 5.31779 5.97806 4.63807 7.09536C3.98835 8.15334 3.56852 9.3003 3.3686 10.5264C3.33862 10.7241 3.32862 10.912 3.30863 11.1196C3.32862 11.1196 3.34861 11.1493 3.3786 11.1493C3.6085 11.1493 3.83841 11.179 4.06831 11.1888C4.26823 11.1987 4.49813 11.1691 4.69805 11.2185C5.02791 11.2976 5.03791 11.6635 4.91796 11.9106C4.87798 11.9996 4.808 12.0886 4.74803 12.1677C4.51812 12.494 4.27822 12.8203 4.05832 13.1466C3.65848 13.7399 3.27864 14.3331 2.87881 14.9264C2.6489 15.2626 2.35902 15.2626 2.12912 14.9264C1.82925 14.4814 1.54936 14.0167 1.24949 13.5718C0.92962 13.0873 0.609753 12.6127 0.289887 12.1282C0.229912 12.0392 0.169937 11.9601 0.119958 11.8711C-0.089955 11.5151 0.0599825 11.2284 0.479808 11.2185C0.829662 11.2185 1.17952 11.2185 1.52937 11.2185C1.78926 11.2185 1.80925 11.1987 1.83924 10.9318C1.96919 9.59693 2.34903 8.32143 2.94878 7.12502C3.49855 6.02749 4.21825 5.05851 5.09788 4.20817C6.19743 3.15019 7.50688 2.30974 8.93628 1.77581C10.3657 1.24188 11.8151 0.955135 13.3145 1.00457C14.374 1.04412 15.4436 1.24188 16.4432 1.58794C17.6227 1.99334 18.7122 2.56682 19.6918 3.32817C21.1712 4.47514 22.3007 5.89896 23.0604 7.59963C23.8001 9.25087 24.09 10.9911 23.96 12.7808L23.97 12.7906Z" fill="#FF7C65"/>
<path d="M16.7226 13.2482C16.7126 13.535 16.5226 13.8316 16.2428 13.9305C16.0828 13.9898 15.9029 13.9898 15.733 13.9898C14.4835 13.9898 13.224 14.0392 11.9745 13.9898C11.4548 13.9601 11.1149 13.5152 11.1249 13.0109C11.1449 11.8145 11.1449 10.628 11.1249 9.43159C11.1249 8.89766 11.0449 8.3044 11.1249 7.77047C11.1849 7.37496 11.4847 7.10799 11.8946 7.11788C12.7042 7.13766 12.6443 8.16597 12.6443 8.74934C12.6443 9.5008 12.6243 10.2523 12.6143 11.0037C12.6143 11.3399 12.6143 11.6761 12.5943 12.0123C12.5843 12.2298 12.5843 12.5066 12.8742 12.5066C13.7438 12.5066 14.6134 12.5066 15.4831 12.5066C15.8329 12.5066 16.3027 12.5066 16.5626 12.7835C16.6826 12.912 16.7326 13.0801 16.7226 13.2482Z" fill="#FF7C65"/>
</svg>
