<svg width="24" height="24" viewBox="0 0 24 24" fill="none" xmlns="http://www.w3.org/2000/svg">
<path d="M18.0001 15.75C17.9016 15.7502 17.804 15.7309 17.713 15.6932C17.622 15.6554 17.5395 15.5999 17.4701 15.53L13.0001 11.061L10.5301 13.53C10.4605 13.5997 10.3779 13.6549 10.287 13.6926C10.196 13.7303 10.0985 13.7498 10.0001 13.7498C9.90164 13.7498 9.80416 13.7303 9.71321 13.6926C9.62227 13.6549 9.53966 13.5997 9.47009 13.53L5.47009 9.53C5.33761 9.38782 5.26549 9.19978 5.26892 9.00548C5.27234 8.81118 5.35106 8.62579 5.48847 8.48838C5.62588 8.35097 5.81127 8.27225 6.00557 8.26882C6.19987 8.2654 6.38792 8.33752 6.53009 8.47L10.0001 11.939L12.4701 9.47C12.5397 9.40034 12.6223 9.34507 12.7132 9.30736C12.8042 9.26965 12.9016 9.25025 13.0001 9.25025C13.0985 9.25025 13.196 9.26965 13.287 9.30736C13.3779 9.34507 13.4605 9.40034 13.5301 9.47L18.5301 14.47C18.6348 14.5749 18.7062 14.7085 18.7351 14.8539C18.7639 14.9993 18.7491 15.15 18.6924 15.2869C18.6357 15.4239 18.5396 15.541 18.4164 15.6234C18.2932 15.7058 18.1483 15.7499 18.0001 15.75Z" fill="#FF7C65"/>
<path d="M18 22.75H6C4.74071 22.7484 3.53345 22.2475 2.643 21.357C1.75254 20.4666 1.25159 19.2593 1.25 18V6C1.25159 4.74071 1.75254 3.53345 2.643 2.643C3.53345 1.75254 4.74071 1.25159 6 1.25H18C19.2593 1.25159 20.4666 1.75254 21.357 2.643C22.2475 3.53345 22.7484 4.74071 22.75 6V18C22.7484 19.2593 22.2475 20.4666 21.357 21.357C20.4666 22.2475 19.2593 22.7484 18 22.75ZM6 2.75C5.13837 2.75106 4.31234 3.09381 3.70307 3.70307C3.09381 4.31234 2.75106 5.13837 2.75 6V18C2.75106 18.8616 3.09381 19.6877 3.70307 20.2969C4.31234 20.9062 5.13837 21.2489 6 21.25H18C18.8616 21.2489 19.6877 20.9062 20.2969 20.2969C20.9062 19.6877 21.2489 18.8616 21.25 18V6C21.2489 5.13837 20.9062 4.31234 20.2969 3.70307C19.6877 3.09381 18.8616 2.75106 18 2.75H6Z" fill="#FF7C65"/>
<path d="M18 15.75H15C14.8011 15.75 14.6103 15.671 14.4697 15.5303C14.329 15.3897 14.25 15.1989 14.25 15C14.25 14.8011 14.329 14.6103 14.4697 14.4697C14.6103 14.329 14.8011 14.25 15 14.25H17.25V12C17.25 11.8011 17.329 11.6103 17.4697 11.4697C17.6103 11.329 17.8011 11.25 18 11.25C18.1989 11.25 18.3897 11.329 18.5303 11.4697C18.671 11.6103 18.75 11.8011 18.75 12V15C18.75 15.1989 18.671 15.3897 18.5303 15.5303C18.3897 15.671 18.1989 15.75 18 15.75Z" fill="#FF7C65"/>
</svg>
