<svg width="25" height="24" viewBox="0 0 25 24" fill="none" xmlns="http://www.w3.org/2000/svg">
<g opacity="0.5">
<path d="M19.5 22.75H5.5C4.77082 22.7495 4.07165 22.4596 3.55604 21.944C3.04043 21.4283 2.75053 20.7292 2.75 20V4C2.75053 3.27082 3.04043 2.57165 3.55604 2.05604C4.07165 1.54043 4.77082 1.25053 5.5 1.25H19.5C20.2292 1.25053 20.9283 1.54043 21.444 2.05604C21.9596 2.57165 22.2495 3.27082 22.25 4V20C22.2495 20.7292 21.9596 21.4283 21.444 21.944C20.9283 22.4596 20.2292 22.7495 19.5 22.75ZM5.5 2.75C5.16864 2.75053 4.85101 2.88239 4.6167 3.1167C4.38239 3.35101 4.25053 3.66864 4.25 4V20C4.25053 20.3314 4.38239 20.649 4.6167 20.8833C4.85101 21.1176 5.16864 21.2495 5.5 21.25H19.5C19.8314 21.2495 20.149 21.1176 20.3833 20.8833C20.6176 20.649 20.7495 20.3314 20.75 20V4C20.7495 3.66864 20.6176 3.35101 20.3833 3.1167C20.149 2.88239 19.8314 2.75053 19.5 2.75H5.5Z" fill="black"/>
<path d="M8.83309 11.083C8.63439 11.0831 8.44377 11.0043 8.30309 10.864L6.97009 9.53C6.83761 9.38783 6.76549 9.19978 6.76892 9.00548C6.77234 8.81118 6.85106 8.62579 6.98847 8.48838C7.12588 8.35097 7.31127 8.27225 7.50557 8.26883C7.69987 8.2654 7.88792 8.33752 8.03009 8.47L8.83009 9.27L10.9701 7.136C11.04 7.0664 11.1228 7.01124 11.214 6.97368C11.3052 6.93611 11.4029 6.91687 11.5015 6.91705C11.6001 6.91724 11.6977 6.93685 11.7888 6.97476C11.8798 7.01267 11.9625 7.06814 12.0321 7.138C12.1017 7.20787 12.1568 7.29075 12.1944 7.38193C12.232 7.47311 12.2512 7.5708 12.251 7.66942C12.2509 7.76803 12.2312 7.86565 12.1933 7.95668C12.1554 8.04772 12.1 8.1304 12.0301 8.2L9.36309 10.864C9.22241 11.0043 9.03179 11.0831 8.83309 11.083Z" fill="black"/>
<path d="M18.5 10.083H14.5C14.3011 10.083 14.1103 10.004 13.9697 9.86334C13.829 9.72269 13.75 9.53192 13.75 9.33301C13.75 9.1341 13.829 8.94333 13.9697 8.80268C14.1103 8.66202 14.3011 8.58301 14.5 8.58301H18.5C18.6989 8.58301 18.8897 8.66202 19.0303 8.80268C19.171 8.94333 19.25 9.1341 19.25 9.33301C19.25 9.53192 19.171 9.72269 19.0303 9.86334C18.8897 10.004 18.6989 10.083 18.5 10.083Z" fill="black"/>
<path d="M8.83309 17.083C8.63439 17.0831 8.44377 17.0043 8.30309 16.864L6.97009 15.53C6.83761 15.3878 6.76549 15.1998 6.76892 15.0055C6.77234 14.8112 6.85106 14.6258 6.98847 14.4884C7.12588 14.351 7.31127 14.2723 7.50557 14.2688C7.69987 14.2654 7.88792 14.3375 8.03009 14.47L8.83009 15.27L10.9671 13.133C11.1086 12.9921 11.3003 12.9131 11.5 12.9135C11.6997 12.9138 11.8911 12.9935 12.0321 13.135C12.1731 13.2765 12.252 13.4682 12.2517 13.6679C12.2513 13.8677 12.1716 14.0591 12.0301 14.2L9.36309 16.864C9.22241 17.0043 9.03179 17.0831 8.83309 17.083Z" fill="black"/>
<path d="M18.5 16.083H14.5C14.3011 16.083 14.1103 16.004 13.9697 15.8633C13.829 15.7227 13.75 15.5319 13.75 15.333C13.75 15.1341 13.829 14.9433 13.9697 14.8027C14.1103 14.662 14.3011 14.583 14.5 14.583H18.5C18.6989 14.583 18.8897 14.662 19.0303 14.8027C19.171 14.9433 19.25 15.1341 19.25 15.333C19.25 15.5319 19.171 15.7227 19.0303 15.8633C18.8897 16.004 18.6989 16.083 18.5 16.083Z" fill="black"/>
</g>
</svg>
