<svg width="25" height="24" viewBox="0 0 25 24" fill="none" xmlns="http://www.w3.org/2000/svg">
<g opacity="0.5">
<path d="M22.25 9H2.75C2.35218 9 1.97064 8.84196 1.68934 8.56066C1.40804 8.27936 1.25 7.89782 1.25 7.5V3.75C1.25 3.35218 1.40804 2.97064 1.68934 2.68934C1.97064 2.40804 2.35218 2.25 2.75 2.25H22.25C22.6478 2.25 23.0294 2.40804 23.3107 2.68934C23.592 2.97064 23.75 3.35218 23.75 3.75V7.5C23.75 7.89782 23.592 8.27936 23.3107 8.56066C23.0294 8.84196 22.6478 9 22.25 9ZM2.75 3.75V7.5H22.25V3.75H2.75Z" fill="black"/>
<path d="M20.375 21.75H4.625C4.02826 21.75 3.45597 21.5129 3.03401 21.091C2.61205 20.669 2.375 20.0967 2.375 19.5V8.25C2.375 8.05109 2.45402 7.86032 2.59467 7.71967C2.73532 7.57902 2.92609 7.5 3.125 7.5H21.875C22.0739 7.5 22.2647 7.57902 22.4053 7.71967C22.546 7.86032 22.625 8.05109 22.625 8.25V19.5C22.625 20.0967 22.3879 20.669 21.966 21.091C21.544 21.5129 20.9717 21.75 20.375 21.75ZM3.875 9V19.5C3.875 19.6989 3.95402 19.8897 4.09467 20.0303C4.23532 20.171 4.42609 20.25 4.625 20.25H20.375C20.5739 20.25 20.7647 20.171 20.9053 20.0303C21.046 19.8897 21.125 19.6989 21.125 19.5V9H3.875Z" fill="black"/>
<path d="M18.5 18.75H15.5C15.3011 18.75 15.1103 18.671 14.9697 18.5303C14.829 18.3897 14.75 18.1989 14.75 18C14.75 17.8011 14.829 17.6103 14.9697 17.4697C15.1103 17.329 15.3011 17.25 15.5 17.25H18.5C18.6989 17.25 18.8897 17.329 19.0303 17.4697C19.171 17.6103 19.25 17.8011 19.25 18C19.25 18.1989 19.171 18.3897 19.0303 18.5303C18.8897 18.671 18.6989 18.75 18.5 18.75Z" fill="black"/>
</g>
</svg>
