<svg width="24" height="24" viewBox="0 0 24 24" fill="none" xmlns="http://www.w3.org/2000/svg">
<path d="M7.00008 7.74999C6.80117 7.74999 6.6104 7.67097 6.46975 7.53032C6.3291 7.38967 6.25008 7.1989 6.25008 6.99999V4.04399L2.95008 3.83199C2.85159 3.82542 2.75535 3.79952 2.66687 3.75576C2.57839 3.71201 2.49939 3.65125 2.43439 3.57696C2.30312 3.42693 2.23682 3.2309 2.25008 3.03199C2.26334 2.83308 2.35508 2.64758 2.5051 2.5163C2.65513 2.38503 2.85117 2.31873 3.05008 2.33199L7.05008 2.58999C7.23986 2.60267 7.41773 2.68698 7.54769 2.82585C7.67765 2.96472 7.75 3.14779 7.75008 3.33799V6.99999C7.75008 7.1989 7.67106 7.38967 7.53041 7.53032C7.38976 7.67097 7.19899 7.74999 7.00008 7.74999Z" fill="#FF7C65"/>
<path d="M12 22.75C9.6333 22.75 7.33269 21.9691 5.45504 20.5283C3.5774 19.0875 2.22765 17.0674 1.61516 14.7813C1.00267 12.4952 1.16166 10.0708 2.06747 7.8843C2.97329 5.69776 4.5753 3.87123 6.62503 2.688C6.79742 2.58854 7.00226 2.56164 7.19448 2.61322C7.38671 2.66479 7.55057 2.79061 7.65003 2.963C7.74949 3.13539 7.77639 3.34023 7.72481 3.53245C7.67324 3.72468 7.54742 3.88854 7.37503 3.988C5.43045 5.10977 3.96001 6.90023 3.23769 9.02579C2.51537 11.1514 2.59043 13.467 3.4489 15.5413C4.30736 17.6157 5.89067 19.3071 7.90381 20.3006C9.91695 21.2941 12.2226 21.5218 14.3912 20.9413C16.5598 20.3608 18.4434 19.0118 19.6911 17.1455C20.9387 15.2791 21.4653 13.0229 21.1727 10.7971C20.8802 8.57131 19.7884 6.52779 18.1008 5.0473C16.4132 3.56681 14.245 2.75034 12 2.75C11.8011 2.75 11.6104 2.67098 11.4697 2.53033C11.329 2.38968 11.25 2.19891 11.25 2C11.25 1.80109 11.329 1.61032 11.4697 1.46967C11.6104 1.32902 11.8011 1.25 12 1.25C14.8511 1.25 17.5854 2.38259 19.6014 4.3986C21.6174 6.41462 22.75 9.14892 22.75 12C22.75 14.8511 21.6174 17.5854 19.6014 19.6014C17.5854 21.6174 14.8511 22.75 12 22.75Z" fill="#FF7C65"/>
</svg>
