<svg width="24" height="24" viewBox="0 0 24 24" fill="none" xmlns="http://www.w3.org/2000/svg">
<path d="M18 22.75H6C5.00584 22.7487 4.05279 22.3532 3.34981 21.6502C2.64684 20.9472 2.25132 19.9942 2.25 19V5C2.25132 4.00584 2.64684 3.05279 3.34981 2.34981C4.05279 1.64684 5.00584 1.25132 6 1.25H13.914C14.7909 1.25079 15.6399 1.5582 16.314 2.119L20.4 5.524C20.8224 5.87484 21.1623 6.31442 21.3957 6.81148C21.629 7.30854 21.75 7.8509 21.75 8.4V19C21.7487 19.9942 21.3532 20.9472 20.6502 21.6502C19.9472 22.3532 18.9942 22.7487 18 22.75ZM6 2.75C5.40351 2.75079 4.83167 2.9881 4.40989 3.40989C3.9881 3.83167 3.75079 4.40351 3.75 5V19C3.75079 19.5965 3.9881 20.1683 4.40989 20.5901C4.83167 21.0119 5.40351 21.2492 6 21.25H18C18.5965 21.2492 19.1683 21.0119 19.5901 20.5901C20.0119 20.1683 20.2492 19.5965 20.25 19V8.4C20.2506 8.0701 20.1783 7.74414 20.0382 7.44542C19.8982 7.14671 19.6939 6.88261 19.44 6.672L15.354 3.271C14.9494 2.93475 14.4401 2.75046 13.914 2.75H6Z" fill="#FF7C65"/>
<path d="M20.65 7.74999H17C16.2709 7.7492 15.5719 7.45921 15.0563 6.94366C14.5408 6.42811 14.2508 5.72909 14.25 4.99999V2.20999C14.25 2.01108 14.329 1.82031 14.4697 1.67966C14.6103 1.53901 14.8011 1.45999 15 1.45999C15.1989 1.45999 15.3897 1.53901 15.5303 1.67966C15.671 1.82031 15.75 2.01108 15.75 2.20999V4.99999C15.7505 5.33135 15.8824 5.64899 16.1167 5.88329C16.351 6.1176 16.6686 6.24946 17 6.24999H20.65C20.8489 6.24999 21.0397 6.32901 21.1803 6.46966C21.321 6.61031 21.4 6.80108 21.4 6.99999C21.4 7.1989 21.321 7.38967 21.1803 7.53032C21.0397 7.67097 20.8489 7.74999 20.65 7.74999Z" fill="#FF7C65"/>
<path d="M17 12.25H7C6.80109 12.25 6.61032 12.171 6.46967 12.0303C6.32902 11.8897 6.25 11.6989 6.25 11.5C6.25 11.3011 6.32902 11.1103 6.46967 10.9697C6.61032 10.829 6.80109 10.75 7 10.75H17C17.1989 10.75 17.3897 10.829 17.5303 10.9697C17.671 11.1103 17.75 11.3011 17.75 11.5C17.75 11.6989 17.671 11.8897 17.5303 12.0303C17.3897 12.171 17.1989 12.25 17 12.25Z" fill="#FF7C65"/>
<path d="M12 8.25H7C6.80109 8.25 6.61032 8.17098 6.46967 8.03033C6.32902 7.88968 6.25 7.69891 6.25 7.5C6.25 7.30109 6.32902 7.11032 6.46967 6.96967C6.61032 6.82902 6.80109 6.75 7 6.75H12C12.1989 6.75 12.3897 6.82902 12.5303 6.96967C12.671 7.11032 12.75 7.30109 12.75 7.5C12.75 7.69891 12.671 7.88968 12.5303 8.03033C12.3897 8.17098 12.1989 8.25 12 8.25Z" fill="#FF7C65"/>
<path d="M8.00007 19.75C7.85183 19.7499 7.70696 19.7058 7.58374 19.6234C7.46053 19.541 7.3645 19.4239 7.30779 19.2869C7.25107 19.15 7.23622 18.9993 7.26511 18.8539C7.29399 18.7085 7.36532 18.5749 7.47007 18.47L10.4701 15.47C10.5396 15.4003 10.6223 15.3451 10.7132 15.3074C10.8041 15.2697 10.9016 15.2503 11.0001 15.2503C11.0985 15.2503 11.196 15.2697 11.2869 15.3074C11.3779 15.3451 11.4605 15.4003 11.5301 15.47L12.9581 16.9L15.4311 14.015C15.494 13.9366 15.5721 13.8717 15.6606 13.824C15.7492 13.7764 15.8464 13.747 15.9465 13.7377C16.0466 13.7284 16.1476 13.7393 16.2434 13.7698C16.3392 13.8003 16.4279 13.8497 16.5042 13.9152C16.5805 13.9807 16.6429 14.0608 16.6876 14.1508C16.7324 14.2409 16.7585 14.339 16.7646 14.4394C16.7706 14.5397 16.7565 14.6403 16.7229 14.735C16.6893 14.8298 16.637 14.9169 16.5691 14.991L13.5691 18.491C13.5016 18.5694 13.4188 18.6331 13.3258 18.6782C13.2327 18.7232 13.1314 18.7487 13.0281 18.753C12.9251 18.7551 12.8228 18.7367 12.727 18.6989C12.6312 18.6612 12.5439 18.6048 12.4701 18.533L11.0001 17.061L8.53007 19.53C8.46069 19.5999 8.37812 19.6554 8.28714 19.6932C8.19616 19.7309 8.09858 19.7503 8.00007 19.75Z" fill="#FF7C65"/>
</svg>
