<svg width="24" height="24" viewBox="0 0 24 24" fill="none" xmlns="http://www.w3.org/2000/svg">
<path d="M18.3 21.96C17.29 21.96 16.29 21.61 15.5 20.97H3.06C2.06 20.97 1.25 20.16 1.25 19.17V6.48999C1.25 6.35999 1.28 6.23999 1.34 6.11999L3.16 2.94999C3.48 2.38999 4.08 2.03999 4.73 2.03999H17.85C18.43 2.03999 18.97 2.32999 19.31 2.79999L21.63 6.04999C21.72 6.17999 21.77 6.32999 21.77 6.48999V14.72C23.1 16.36 23.08 18.74 21.72 20.36C20.87 21.37 19.63 21.95 18.31 21.95L18.3 21.96ZM18.37 14.64C16.75 14.64 15.43 15.96 15.43 17.58C15.43 19.2 16.75 20.52 18.37 20.52C19.99 20.52 21.31 19.2 21.31 17.58C21.31 15.96 19.99 14.64 18.37 14.64ZM2.75 7.23999V19.16C2.75 19.33 2.9 19.46 3.06 19.46H14.38C13.74 18.17 13.8 16.64 14.52 15.37C15.31 13.99 16.79 13.13 18.38 13.13C19.03 13.13 19.69 13.28 20.28 13.56L20.25 7.21999L14.34 7.23999L14.36 10.71C14.36 11.13 14.02 11.46 13.61 11.46H9.39C8.97 11.46 8.64 11.12 8.64 10.71V7.22999H2.75V7.23999ZM10.14 7.23999V9.97999L12.89 9.95999L12.87 7.22999H10.14V7.23999ZM4.72 3.54999C4.61 3.54999 4.51 3.60999 4.46 3.69999L3.28 5.76999L8.75 5.73999L9.05 3.53999H4.72V3.54999ZM10.56 3.54999L10.25 5.75999L12.77 5.73999L12.43 3.53999H10.56V3.54999ZM14.27 5.75999L19.58 5.73999L18.07 3.67999C18.01 3.59999 17.92 3.55999 17.83 3.54999H13.95L14.27 5.75999Z" fill="#FF7C65"/>
<path d="M19.4301 19.39C19.2301 19.39 19.0401 19.31 18.8901 19.17L18.3601 18.63L17.8501 19.17C17.7001 19.31 17.5101 19.39 17.3101 19.39C17.1101 19.39 16.9201 19.31 16.7801 19.17C16.6401 19.03 16.5601 18.84 16.5601 18.64C16.5601 18.44 16.6401 18.25 16.7801 18.11L17.3201 17.58L16.7801 17.07C16.4901 16.77 16.4901 16.29 16.7801 16C16.9201 15.86 17.1101 15.78 17.3101 15.78C17.5101 15.78 17.7001 15.86 17.8401 16L18.3701 16.54L18.8801 16C19.0201 15.86 19.2101 15.78 19.4101 15.78C19.6101 15.78 19.8001 15.86 19.9401 16C20.0801 16.14 20.1601 16.34 20.1601 16.54C20.1601 16.74 20.0801 16.93 19.9401 17.07L19.4001 17.6L19.9401 18.11C20.0901 18.26 20.1601 18.45 20.1601 18.65C20.1601 18.85 20.0801 19.04 19.9401 19.18C19.8001 19.32 19.6101 19.4 19.4101 19.4L19.4301 19.39Z" fill="#FF7C65"/>
</svg>
