<svg xmlns="http://www.w3.org/2000/svg" width="24" height="24.196" viewBox="0 0 24 24.196">
  <g id="whatsapp" transform="translate(-1.69 0)">
    <path id="Path_16846" data-name="Path 16846" d="M13.1.014A12,12,0,0,0,3,17.45L1.722,23.634a.467.467,0,0,0,.565.549l6.06-1.436A12,12,0,1,0,13.1.014Zm7.231,18.63A9.4,9.4,0,0,1,9.508,20.416L8.664,20l-3.715.88.782-3.8-.416-.814A9.4,9.4,0,0,1,7.046,5.356,9.4,9.4,0,1,1,20.334,18.644Z" transform="translate(0 0)" fill="#7ad06d"/>
    <path id="Path_16847" data-name="Path 16847" d="M116.45,115.8l-2.324-.667a.866.866,0,0,0-.857.226l-.568.579a.847.847,0,0,1-.921.194,12.409,12.409,0,0,1-4-3.53.847.847,0,0,1,.067-.938l.5-.642a.866.866,0,0,0,.107-.88l-.978-2.212a.867.867,0,0,0-1.353-.31,3.91,3.91,0,0,0-1.512,2.306c-.165,1.629.533,3.682,3.175,6.147,3.051,2.848,5.495,3.224,7.086,2.839a3.909,3.909,0,0,0,2.079-1.812A.867.867,0,0,0,116.45,115.8Z" transform="translate(-96.937 -101.201)" fill="#7ad06d"/>
  </g>
</svg>
